{"title":"Mika Tan &amp; Lyla Lei - DeviAsians","uid":10796579,"size":391347539,"categoryP":"porn","categoryS":"movie_clips","magnet":"?xt=urn:btih:e0d2ed50e8abe26a115e28c0dc731e852ce09801&amp;dn=Mika+Tan+%26amp%3B+Lyla+Lei+-+DeviAsians&amp;tr=udp%3A%2F%2Ftracker.openbittorrent.com%3A80&amp;tr=udp%3A%2F%2Fopen.demonii.com%3A1337&amp;tr=udp%3A%2F%2Ftracker.coppersurfer.tk%3A6969&amp;tr=udp%3A%2F%2Fexodus.desync.com%3A6969","seeders":2,"leechers":1,"uploader":"ThousandPeers","files":-1,"time":1408299806,"description":"Format                                   : Windows Media\nFile size                                : 342 MiB\nDuration                                 : 22mn 12s\nOverall bit rate mode                    : Variable\nOverall bit rate                         : 2 152 Kbps\nMaximum Overall bit rate                 : 4 002 Kbps\nMovie name                               : DeviAsians\nEncoded date                             : UTC 2007-03-12 03:28:45.312\n\nVideo\nID                                       : 2\nFormat                                   : WMV2\nCodec ID                                 : WMV2\nCodec ID/Info                            : Windows Media Video 8\nDuration                                 : 22mn 12s\nBit rate mode                            : Variable\nBit rate                                 : 1 878 Kbps\nWidth                                    : 640 pixels\nHeight                                   : 480 pixels\nDisplay aspect ratio                     : 16:9\nFrame rate                               : 23.976 fps\nBit depth                                : 8 bits\nBits/(Pixel*Frame)                       : 0.255\nStream size                              : 298 MiB (87%)\n\nAudio\nID                                       : 1\nFormat                                   : WMA\nFormat version                           : Version 2\nCodec ID                                 : 161\nCodec ID/Info                            : Windows Media Audio\nDuration                                 : 22mn 12s\nBit rate mode                            : Constant\nBit rate                                 : 64.0 Kbps\nChannel(s)                               : 2 channels\nSampling rate                            : 44.1 KHz\nBit depth                                : 16 bits\nStream size                              : 10.2 MiB (3%)\n","torrent":{"xt":"urn:btih:e0d2ed50e8abe26a115e28c0dc731e852ce09801","amp;dn":"Mika+Tan+%26amp%3B+Lyla+Lei+-+DeviAsians","amp;tr":["udp%3A%2F%2Ftracker.openbittorrent.com%3A80","udp%3A%2F%2Fopen.demonii.com%3A1337","udp%3A%2F%2Ftracker.coppersurfer.tk%3A6969","udp%3A%2F%2Fexodus.desync.com%3A6969"],"infoHash":"e0d2ed50e8abe26a115e28c0dc731e852ce09801","infoHashBuffer":{"type":"Buffer","data":[224,210,237,80,232,171,226,106,17,94,40,192,220,115,30,133,44,224,152,1]},"announce":[],"urlList":[]}}